<?xml version="1.0" standalone="no"?>
<!DOCTYPE svg PUBLIC "-//W3C//DTD SVG 20010904//EN"
 "http://www.w3.org/TR/2001/REC-SVG-20010904/DTD/svg10.dtd">
<svg version="1.0" xmlns="http://www.w3.org/2000/svg"
 width="564.000000pt" height="564.000000pt" viewBox="0 0 564.000000 564.000000"
 preserveAspectRatio="xMidYMid meet">
<metadata>
Created by potrace 1.14, written by Peter Selinger 2001-2017
</metadata>
<g transform="translate(0.000000,564.000000) scale(0.100000,-0.100000)"
fill="#000000" stroke="none">
<path d="M0 2820 l0 -2820 2820 0 2820 0 0 2820 0 2820 -2820 0 -2820 0 0
-2820z m2760 2235 c30 -8 87 -21 125 -29 95 -19 187 -55 179 -68 -4 -7 -2 -8
4 -4 24 15 136 -62 138 -95 1 -22 -28 -34 -53 -21 -27 14 -226 60 -333 77 -52
9 -167 17 -255 19 -88 2 -133 2 -100 0 141 -9 358 -36 460 -58 265 -56 655
-208 655 -256 0 -31 -82 -101 -165 -140 -71 -33 -121 -48 -219 -64 -16 -3 -53
-11 -82 -17 -39 -9 -66 -9 -106 -1 -175 36 -255 56 -354 87 -61 19 -117 35
-124 35 -30 0 -208 85 -243 116 -42 39 -57 42 -57 15 0 -60 245 -156 655 -256
83 -20 185 -45 228 -56 93 -23 324 -59 384 -59 45 0 74 -25 72 -65 0 -13 -5
-9 -13 14 -7 19 -18 37 -24 39 -15 5 -16 6 9 -58 24 -62 38 -248 22 -289 -7
-17 -8 2 -6 60 5 90 -6 160 -24 166 -8 3 -10 -10 -7 -39 2 -24 1 -34 -2 -23
-13 47 -24 36 -24 -23 0 -35 -4 -62 -10 -62 -5 0 -10 -10 -10 -22 0 -17 -3
-19 -9 -9 -12 18 -32 5 -25 -17 4 -10 2 -13 -3 -7 -12 14 -35 18 -42 6 -5 -7
-31 -5 -76 5 -72 16 -298 27 -290 14 2 -4 -35 -17 -83 -29 -48 -12 -125 -37
-172 -55 -47 -19 -130 -50 -185 -69 -242 -86 -306 -111 -400 -159 -55 -27
-121 -63 -147 -80 l-47 -30 -43 35 c-56 44 -116 67 -179 67 -132 0 -203 -50
-234 -163 -14 -51 -16 -77 -9 -109 9 -41 8 -44 -20 -63 -53 -36 -53 -45 2
-118 71 -95 80 -147 26 -147 -18 0 -23 4 -18 13 6 9 5 9 -8 -1 -12 -10 -22 -9
-49 3 -19 8 -28 14 -21 15 6 0 12 5 12 11 0 6 -11 8 -28 4 -24 -5 -36 1 -72
36 -43 42 -43 62 0 39 12 -6 24 -9 27 -7 9 9 -47 40 -72 40 -14 0 -25 2 -26 6
0 3 -3 15 -5 26 -16 69 -16 92 2 109 15 16 16 20 3 30 -9 7 -13 26 -11 56 2
37 -2 51 -23 75 -65 75 -105 210 -105 351 1 71 20 222 39 306 24 103 108 294
176 399 61 94 105 140 204 212 323 237 569 313 971 301 91 -3 190 -11 220 -19z
m777 -1047 c-2 -13 -4 -5 -4 17 -1 22 1 32 4 23 2 -10 2 -28 0 -40z m181 -83
c11 -33 23 -68 27 -79 8 -17 6 -17 -23 -2 -33 17 -37 26 -47 111 -4 28 -9 61
-11 75 -8 40 30 -34 54 -105z m-191 23 c-3 -8 -6 -5 -6 6 -1 11 2 17 5 13 3
-3 4 -12 1 -19z m-197 -24 c36 -9 74 -16 85 -17 11 0 25 -8 31 -16 6 -8 18
-12 27 -8 8 3 23 -3 33 -14 10 -11 24 -17 31 -14 9 3 11 0 7 -7 -5 -8 -2 -9
10 -5 9 4 15 3 12 -2 -5 -8 58 -54 76 -55 9 -1 48 -47 48 -58 0 -5 4 -6 10 -3
5 3 7 0 4 -9 -3 -8 -12 -12 -20 -9 -9 3 -14 -2 -14 -14 0 -18 -4 -18 -92 -7
-51 6 -131 21 -178 33 -59 14 -111 20 -170 19 l-85 -2 90 -6 90 -6 -125 -2
c-132 -2 -264 -24 -291 -48 -8 -8 -20 -11 -25 -7 -5 5 -6 4 -2 -1 4 -5 -36
-29 -90 -52 -53 -24 -105 -49 -116 -55 -10 -6 -27 -12 -39 -14 -11 -3 -27 -10
-36 -18 -30 -25 -211 -87 -252 -87 -10 0 -38 -9 -61 -19 -86 -39 -114 -49
-185 -70 -40 -12 -73 -26 -73 -31 0 -6 -8 -10 -17 -10 -25 0 -98 -44 -96 -57
1 -6 -7 -9 -19 -5 -16 4 -19 2 -13 -8 5 -9 4 -11 -3 -6 -17 10 -55 -13 -48
-29 3 -9 0 -12 -9 -9 -7 3 -22 1 -33 -5 -26 -14 -164 -24 -171 -12 -3 5 -19
11 -36 12 -34 4 -70 42 -61 65 5 14 139 84 161 84 5 0 100 48 210 107 286 152
461 240 503 254 20 6 134 48 252 91 310 115 425 147 530 147 47 0 114 -7 150
-15z m-235 -244 c-11 -5 -31 -8 -45 -8 l-25 0 25 8 c14 4 34 8 45 8 l20 1 -20
-9z m173 3 c-16 -2 -40 -2 -55 0 -16 2 -3 4 27 4 30 0 43 -2 28 -4z m-313 -23
c-3 -4 0 -11 5 -13 6 -3 5 -4 -1 -3 -7 1 -13 10 -15 19 -1 9 2 15 7 11 5 -3 7
-9 4 -14z m-26 -24 c-2 -2 -15 -7 -29 -10 l-25 -7 25 15 c21 12 42 14 29 2z
m608 -11 c0 -8 -5 -15 -10 -15 -6 0 -7 -3 -3 -7 4 -5 13 -8 19 -8 7 0 13 -7
13 -15 1 -8 2 -21 3 -27 0 -7 8 -13 15 -13 18 0 66 -60 66 -82 0 -8 -9 -23
-20 -33 -11 -10 -22 -26 -26 -37 -5 -17 -9 -16 -44 16 -66 59 -112 77 -214 83
-226 13 -344 -43 -416 -200 -23 -50 -33 -90 -37 -143 -3 -41 -3 -74 1 -74 3 0
39 20 79 44 118 71 133 77 225 83 84 6 88 7 126 45 31 31 46 38 77 38 40 0 85
-30 91 -61 3 -17 -66 -100 -85 -103 -7 -1 -18 -5 -25 -10 -8 -4 -11 -3 -10 4
2 7 -7 16 -19 21 -25 9 -30 0 -10 -21 6 -7 -2 -3 -20 11 -18 13 -32 30 -32 37
-1 11 -20 13 -88 10 -112 -5 -181 -32 -256 -98 -50 -45 -55 -53 -47 -75 8 -21
6 -24 -8 -23 -32 5 -157 -13 -227 -32 -38 -10 -90 -21 -115 -25 -25 -4 -52 -9
-60 -11 -8 -2 -35 -8 -60 -14 -63 -15 -280 -101 -280 -111 0 -5 5 -9 11 -9 5
0 7 -5 3 -12 -6 -9 -9 -9 -12 0 -2 7 -9 12 -15 12 -14 0 -123 -70 -154 -99
-13 -13 -24 -17 -28 -11 -4 6 -16 -1 -28 -17 -27 -35 -134 -139 -165 -160 -32
-22 -174 -46 -183 -31 -4 6 -16 9 -27 6 -29 -8 -43 5 -63 54 l-18 43 0 -35
c-1 -25 9 -47 34 -79 19 -24 35 -40 35 -35 0 5 28 9 63 10 l62 0 -40 -13 -40
-13 53 4 c28 3 52 2 52 -2 0 -3 -30 -37 -67 -74 -61 -62 -71 -68 -108 -68 -23
0 -47 6 -53 12 -10 10 -15 10 -23 -2 -9 -13 -10 -13 -7 0 3 19 -21 90 -31 90
-12 0 -6 401 7 440 17 51 35 72 54 65 9 -4 15 -12 12 -20 -3 -7 2 -15 10 -18
9 -4 16 -12 16 -20 0 -15 54 -37 93 -37 34 0 34 13 1 39 -15 12 -22 21 -16 21
6 0 18 -7 26 -16 10 -10 16 -11 16 -4 0 12 24 61 71 148 13 24 47 66 76 93 29
28 50 55 47 61 -5 7 -2 8 5 3 8 -5 28 8 54 33 46 45 169 102 219 102 24 0 29
3 24 16 -5 14 -4 15 7 5 20 -16 140 34 232 96 38 26 72 50 75 53 11 12 238 85
253 82 5 -2 5 3 1 9 -5 9 -2 10 10 6 10 -4 15 -3 11 3 -3 6 2 10 12 10 20 0
245 51 253 57 2 2 -2 8 -9 12 -8 5 -9 11 -3 15 5 3 12 -1 15 -8 9 -23 90 -30
190 -15 110 16 290 13 326 -5 52 -27 67 -28 68 -5 1 12 -1 19 -4 15 -3 -3 -12
-1 -19 5 -10 8 -11 16 -3 30 12 23 16 24 16 4z m99 3 c-9 -5 -14 -13 -12 -17
3 -4 -1 -8 -9 -8 -11 0 -12 4 -4 13 7 9 5 14 -8 17 -10 2 -3 4 15 4 26 0 30
-2 18 -9z m-599 -4 c-3 -3 -12 -4 -19 -1 -8 3 -5 6 6 6 11 1 17 -2 13 -5z
m553 -10 c0 -8 -19 -13 -24 -6 -3 5 1 9 9 9 8 0 15 -2 15 -3z m-1685 -24 c3
-5 2 -10 -4 -10 -5 0 -13 5 -16 10 -3 6 -2 10 4 10 5 0 13 -4 16 -10z m872
-26 c-3 -3 -12 -4 -19 -1 -8 3 -5 6 6 6 11 1 17 -2 13 -5z m-58 -28 c-2 -2
-15 -7 -29 -10 l-25 -7 25 15 c21 12 42 14 29 2z m54 7 c-7 -2 -19 -2 -25 0
-7 3 -2 5 12 5 14 0 19 -2 13 -5z m-718 -243 c-3 -5 -12 -10 -18 -10 -7 0 -6
4 3 10 19 12 23 12 15 0z m-95 -54 c0 -2 -7 -7 -16 -10 -8 -3 -12 -2 -9 4 6
10 25 14 25 6z m-90 -36 c8 -5 11 -10 5 -10 -5 0 -17 5 -25 10 -8 5 -10 10 -5
10 6 0 17 -5 25 -10z m1397 -94 c12 -19 36 -40 52 -47 17 -8 30 -16 29 -19 -2
-3 -14 -24 -28 -46 -26 -44 -37 -48 -185 -59 -55 -4 -113 -12 -156 -20 -35 -6
-36 -6 -48 35 -12 41 -11 44 16 72 57 60 182 117 258 118 35 0 43 -5 62 -34z
m-1457 14 c-20 -13 -33 -13 -25 0 3 6 14 10 23 10 15 0 15 -2 2 -10z m-40 -19
c0 -5 -7 -12 -16 -15 -14 -5 -15 -4 -4 9 14 17 20 19 20 6z m1883 -38 c-5 -61
-13 -113 -17 -113 -2 0 -17 7 -34 16 -18 8 -41 13 -52 9 -24 -8 -26 7 -4 25 8
8 27 33 41 57 20 35 29 42 45 37 14 -4 18 -2 14 5 -4 6 -3 11 2 11 5 0 8 -21
5 -47z m152 5 c15 -24 38 -54 50 -68 29 -33 37 -57 19 -57 -8 0 -14 6 -14 14
0 7 -4 13 -10 13 -5 0 -26 15 -46 33 -27 23 -34 26 -26 11 8 -16 8 -21 -2 -21
-9 0 -11 11 -8 36 3 20 5 46 6 59 1 12 2 22 2 22 1 0 14 -19 29 -42z m83 -19
c11 -17 11 -24 1 -33 -9 -8 -10 -8 -4 2 4 8 0 21 -11 33 -9 10 -13 19 -8 19 5
0 15 -10 22 -21z m-2878 -34 c7 -9 8 -15 2 -15 -5 0 -12 7 -16 15 -3 8 -4 15
-2 15 2 0 9 -7 16 -15z m2677 -22 c-3 -10 -5 -4 -5 12 0 17 2 24 5 18 2 -7 2
-21 0 -30z m40 0 c-3 -10 -5 -4 -5 12 0 17 2 24 5 18 2 -7 2 -21 0 -30z
m-2551 0 c26 -26 28 -26 35 -8 6 19 7 19 16 -4 6 -16 12 -20 17 -13 13 21 28
13 24 -13 -3 -14 -1 -25 3 -25 5 0 9 -7 9 -15 0 -8 15 -24 33 -35 20 -13 26
-20 15 -20 -9 0 -20 5 -23 10 -4 6 -15 8 -26 5 -14 -5 -19 -2 -19 13 0 21 -32
40 -38 23 -2 -6 -8 -11 -14 -11 -5 0 -7 8 -3 19 6 20 -15 34 -38 25 -7 -2 -22
4 -32 16 -12 13 -14 20 -5 20 7 0 10 8 7 20 -7 28 7 25 39 -7z m-85 -20 c13
-17 13 -17 -6 -3 -11 8 -22 16 -24 17 -2 2 0 3 6 3 6 0 17 -8 24 -17z m44 -44
c-4 -5 -13 -9 -22 -9 -13 0 -13 3 -3 15 13 15 35 11 25 -6z m47 -23 c-5 -42
20 -56 43 -23 15 21 15 20 15 -16 0 -23 -5 -37 -12 -37 -7 0 -40 -14 -72 -30
-32 -17 -60 -30 -62 -30 -10 0 -2 68 9 79 6 6 13 16 13 22 1 5 2 14 3 20 0 6
8 8 18 5 10 -4 14 -4 11 0 -5 5 15 28 37 44 1 0 -1 -15 -3 -34z m468 4 c0 -5
-5 -10 -11 -10 -5 0 -7 5 -4 10 3 6 8 10 11 10 2 0 4 -4 4 -10z m2105 0 c3 -6
-1 -7 -9 -4 -18 7 -21 14 -7 14 6 0 13 -4 16 -10z m110 -11 c-4 -5 -12 -9 -18
-8 -9 0 -8 2 1 6 6 2 9 10 6 15 -4 7 -2 8 5 4 6 -4 9 -12 6 -17z m-1098 5 c-3
-3 -12 -4 -19 -1 -8 3 -5 6 6 6 11 1 17 -2 13 -5z m1063 -18 c0 -2 -7 -7 -16
-10 -8 -3 -12 -2 -9 4 6 10 25 14 25 6z m-1317 -13 c-7 -2 -19 -2 -25 0 -7 3
-2 5 12 5 14 0 19 -2 13 -5z m212 -3 c-3 -5 -18 -9 -33 -9 l-27 1 30 8 c17 4
31 8 33 9 2 0 0 -3 -3 -9z m-1174 -37 c13 -16 12 -17 -3 -4 -10 7 -18 15 -18
17 0 8 8 3 21 -13z m964 -13 c-3 -5 -12 -10 -18 -10 -7 0 -6 4 3 10 19 12 23
12 15 0z m-238 -16 c-3 -3 -12 -4 -19 -1 -8 3 -5 6 6 6 11 1 17 -2 13 -5z
m143 2 c0 -11 -19 -15 -25 -6 -3 5 1 10 9 10 9 0 16 -2 16 -4z m1597 -23 c-7
-16 -12 -35 -10 -45 2 -9 0 -18 -4 -21 -4 -3 -8 5 -9 16 0 12 -4 31 -8 42 -6
14 -5 16 2 6 8 -11 12 -10 21 8 17 31 24 26 8 -6z m-1647 -3 c-34 -11 -60 -11
-35 0 11 5 29 8 40 8 16 0 15 -2 -5 -8z m-1006 -42 c-3 -18 -8 -40 -11 -48 -3
-8 -4 -52 -3 -97 1 -80 1 -82 -24 -89 -30 -7 -40 -28 -26 -55 6 -11 7 -19 2
-19 -6 0 -12 -9 -15 -20 -5 -18 -7 -19 -39 -6 -18 8 -39 25 -47 39 -13 21 -12
31 4 83 36 118 113 244 149 244 12 0 14 -8 10 -32z m741 -18 c3 -5 1 -10 -4
-10 -6 0 -11 5 -11 10 0 6 2 10 4 10 3 0 8 -4 11 -10z m34 -13 c-2 -1 -13 -9
-24 -17 -19 -14 -19 -14 -6 3 7 9 18 17 24 17 6 0 8 -1 6 -3z m-51 -32 c-2 -1
-16 -5 -33 -9 l-30 -6 25 14 c14 8 28 12 33 9 5 -3 7 -6 5 -8z m1917 5 c3 -5
1 -10 -4 -10 -6 0 -11 5 -11 10 0 6 2 10 4 10 3 0 8 -4 11 -10z m-864 -17 c15
-9 33 -30 38 -45 12 -34 26 -36 46 -5 37 57 127 59 185 3 l34 -32 51 28 c57
32 125 37 180 14 32 -14 35 -19 35 -55 0 -30 -6 -44 -25 -59 -14 -11 -25 -25
-25 -32 0 -7 -7 -10 -17 -5 -43 16 -71 15 -116 -4 l-48 -21 -40 20 c-22 12
-38 24 -35 28 3 5 1 14 -4 21 -6 11 -15 8 -42 -13 -19 -14 -43 -26 -52 -26
-10 0 -26 -5 -37 -11 -29 -15 -90 6 -82 28 5 13 2 15 -18 9 -13 -4 -48 -12
-78 -17 -29 -5 -65 -16 -79 -23 -19 -10 -32 -11 -48 -4 -19 9 -20 14 -12 49 6
21 7 46 4 55 -6 16 -8 16 -20 -2 -8 -11 -16 -31 -18 -44 -3 -23 -8 -25 -73
-30 -38 -3 -81 -11 -93 -18 -29 -17 -37 -10 -23 16 6 12 11 30 11 41 0 11 10
31 23 44 12 13 30 33 39 45 24 29 89 30 129 1 30 -21 49 -19 49 6 0 7 12 23
26 34 33 26 95 28 135 4z m964 -13 c3 -5 1 -10 -4 -10 -6 0 -11 5 -11 10 0 6
2 10 4 10 3 0 8 -4 11 -10z m-58 -22 c-3 -8 -6 -5 -6 6 -1 11 2 17 5 13 3 -3
4 -12 1 -19z m24 -25 c-12 -20 -14 -14 -5 12 4 9 9 14 11 11 3 -2 0 -13 -6
-23z m-1397 -7 c19 -8 37 -19 40 -25 7 -11 -30 -92 -42 -89 -4 0 -14 -1 -22
-5 -8 -3 -35 -8 -60 -11 -25 -3 -56 -9 -69 -12 -18 -5 -22 -4 -16 5 4 7 10 36
14 65 6 51 6 51 56 68 63 21 59 21 99 4z m1219 -18 c23 -17 28 -26 26 -57 -2
-20 -8 -45 -14 -56 -5 -11 -10 -21 -11 -23 0 -1 -17 5 -37 13 -20 8 -56 16
-81 17 -45 1 -60 13 -32 24 8 3 27 30 41 61 25 50 30 54 53 48 14 -3 39 -16
55 -27z m141 23 c3 -5 -1 -11 -9 -14 -9 -4 -12 -1 -8 9 6 16 10 17 17 5z
m-1555 -55 c12 -14 2 -77 -16 -101 -17 -22 -60 -37 -79 -27 -11 5 -36 12 -56
16 -24 4 -38 13 -38 21 0 21 -27 19 -35 -2 -10 -31 -101 -66 -176 -68 -51 -2
-69 1 -73 12 -4 11 -19 2 -52 -32 -28 -28 -52 -44 -61 -41 -8 4 -26 6 -39 6
-21 0 -24 3 -18 28 3 15 20 40 38 56 29 26 35 28 93 23 46 -3 66 -1 74 9 6 8
16 11 22 7 6 -3 7 -1 3 6 -7 11 23 42 68 68 32 19 80 15 110 -8 28 -22 56 -20
56 4 0 31 156 51 179 23z m1759 -11 c-3 -3 -9 2 -12 12 -6 14 -5 15 5 6 7 -7
10 -15 7 -18z m-53 5 c3 -5 1 -10 -4 -10 -6 0 -11 5 -11 10 0 6 2 10 4 10 3 0
8 -4 11 -10z m39 -16 c3 -8 2 -12 -4 -9 -6 3 -10 10 -10 16 0 14 7 11 14 -7z
m-154 -48 c0 -6 -7 -1 -15 10 -8 10 -15 23 -15 28 0 6 7 1 15 -10 8 -10 15
-23 15 -28z m120 28 c0 -2 -7 -4 -15 -4 -8 0 -15 4 -15 10 0 5 7 7 15 4 8 -4
15 -8 15 -10z m-80 -4 c0 -5 -2 -10 -4 -10 -3 0 -8 5 -11 10 -3 6 -1 10 4 10
6 0 11 -4 11 -10z m-2760 -20 c0 -5 -5 -10 -11 -10 -5 0 -7 5 -4 10 3 6 8 10
11 10 2 0 4 -4 4 -10z m360 -44 c0 -2 -7 -6 -15 -10 -8 -3 -15 -1 -15 4 0 6 7
10 15 10 8 0 15 -2 15 -4z m1154 -27 c36 -17 51 -60 38 -110 -6 -23 -8 -47 -6
-54 16 -41 -144 -72 -206 -40 -28 14 -33 14 -80 -10 -61 -31 -117 -32 -172 -4
-46 23 -98 21 -128 -6 -9 -9 -46 -20 -80 -26 -68 -11 -113 -2 -134 27 -11 14
-16 13 -50 -10 -53 -36 -97 -42 -135 -20 l-31 18 -39 -38 c-39 -38 -39 -38
-99 -31 -48 5 -60 4 -65 -9 -3 -8 -18 -22 -32 -32 -25 -16 -27 -16 -50 6 -29
27 -31 49 -10 89 19 38 50 45 75 18 11 -11 20 -27 20 -34 0 -7 5 -13 10 -13 6
0 10 7 10 15 0 20 77 123 102 136 10 5 24 7 30 3 7 -4 8 -3 4 4 -5 8 2 12 19
12 26 0 26 -1 20 -55 -5 -38 -4 -55 4 -55 6 0 11 7 11 16 0 9 15 31 34 50 26
26 42 34 70 34 51 0 86 -19 86 -47 0 -34 17 -28 25 10 17 75 25 82 113 85 101
4 126 -7 119 -52 -7 -43 6 -65 27 -47 9 8 16 20 16 27 0 19 55 106 62 99 3 -4
34 -1 67 5 34 6 70 8 81 5 24 -8 52 -78 44 -111 -6 -22 -4 -25 12 -22 12 2 33
29 54 71 34 67 60 90 112 100 13 2 24 5 25 6 1 0 13 -4 27 -10z m796 -10 c0
-12 44 -11 56 1 6 6 34 13 62 17 47 5 53 4 76 -23 21 -23 27 -26 35 -15 23 36
65 -24 55 -78 -5 -21 -13 -30 -33 -34 -33 -6 -35 -4 -22 22 18 33 -5 33 -34 0
-30 -37 -82 -58 -142 -59 -38 0 -43 3 -43 22 0 12 7 42 16 65 9 24 14 46 10
50 -7 8 -1 14 -65 -74 -47 -65 -56 -72 -99 -82 -42 -9 -52 -7 -90 14 l-43 24
-37 -19 c-20 -11 -55 -20 -78 -20 -43 0 -49 6 -69 78 -9 31 27 86 69 106 32
15 50 15 124 0 25 -5 30 -40 11 -76 -7 -13 -7 -24 -1 -30 6 -6 18 5 33 33 32
57 66 79 130 88 57 8 79 5 79 -10z m-2173 -205 c-3 -3 -12 -4 -19 -1 -8 3 -5
6 6 6 11 1 17 -2 13 -5z m33 -4 c0 -5 -5 -10 -11 -10 -5 0 -7 5 -4 10 3 6 8
10 11 10 2 0 4 -4 4 -10z m20 -104 c0 -12 5 -27 12 -34 9 -9 8 -12 -5 -12 -18
0 -51 55 -42 70 10 16 35 -1 35 -24z m743 -397 c125 -161 223 -255 358 -345
150 -99 517 -270 563 -261 20 3 20 4 -4 14 -38 17 -104 89 -95 104 5 7 4 10
-2 6 -6 -4 -26 8 -46 26 -36 32 -107 129 -107 146 0 10 35 21 72 21 41 0 58
10 58 35 0 12 6 28 14 35 12 9 33 -1 111 -54 92 -63 124 -79 109 -55 -4 7 2 7
17 -1 33 -18 38 -24 12 -16 -19 6 -22 4 -16 -10 5 -14 3 -15 -18 -4 -13 7 -40
25 -59 40 -50 39 -139 100 -145 100 -15 0 -1 -18 25 -33 20 -12 27 -23 24 -35
-4 -13 -3 -14 4 -4 7 10 16 8 41 -14 31 -26 31 -27 14 -48 -18 -21 -18 -21 4
-2 24 20 59 15 47 -6 -4 -7 -4 -10 1 -6 11 10 45 -10 45 -27 0 -8 -6 -15 -12
-15 -9 0 -10 -3 -2 -8 6 -4 14 -14 18 -22 3 -8 4 -4 2 9 -5 23 -3 22 29 -9 19
-18 31 -38 28 -43 -3 -6 -1 -7 4 -4 13 8 36 -17 25 -28 -4 -5 -2 -5 5 -2 6 4
29 -15 54 -45 24 -29 49 -57 56 -61 7 -4 25 -19 41 -33 18 -18 21 -24 9 -20
-11 3 -16 2 -12 -4 4 -6 12 -10 18 -9 25 3 37 -1 37 -13 0 -7 14 -27 32 -45
17 -18 28 -36 24 -40 -4 -4 -30 -7 -59 -8 -29 0 -54 -3 -57 -6 -6 -7 -121 -35
-180 -44 -25 -3 -77 -13 -116 -21 -39 -9 -78 -14 -85 -13 -21 4 -82 -9 -199
-43 -135 -39 -219 -51 -239 -35 -12 9 -13 9 -7 0 14 -24 -58 -1 -112 35 -150
102 -285 286 -343 470 -13 39 -27 72 -32 72 -4 0 -5 -4 -2 -10 3 -5 1 -10 -5
-10 -12 0 -30 42 -34 78 -2 12 -6 25 -9 29 -13 13 -7 32 8 27 11 -5 13 -2 9 9
-3 9 -11 14 -18 11 -7 -3 -13 1 -13 8 0 7 -3 23 -7 36 -5 16 -3 22 7 22 9 0
14 7 12 18 -2 9 -4 25 -4 35 -1 10 -5 16 -10 13 -4 -3 -6 -18 -3 -33 3 -21 2
-25 -7 -17 -7 6 -14 34 -15 62 -2 28 -7 56 -11 62 -4 6 -4 14 0 18 3 3 10 0
15 -8 7 -10 10 13 10 68 0 55 -3 81 -10 77 -6 -4 -10 -29 -9 -56 2 -27 0 -52
-4 -56 -12 -11 -8 117 4 139 13 25 3 35 142 -143z m988 -295 c9 -11 2 -9 -18
6 -18 13 -33 25 -33 27 0 8 38 -17 51 -33z m-1021 -124 c0 -5 -4 -10 -10 -10
-5 0 -10 5 -10 10 0 6 5 10 10 10 6 0 10 -4 10 -10z m4 -35 c3 -8 1 -15 -4
-15 -6 0 -10 7 -10 15 0 8 2 15 4 15 2 0 6 -7 10 -15z m1496 -357 c0 -13 -55
24 -80 55 -24 29 -22 29 28 -8 28 -22 52 -43 52 -47z m-1340 52 c6 -11 8 -20
6 -20 -3 0 -10 9 -16 20 -6 11 -8 20 -6 20 3 0 10 -9 16 -20z m49 -74 c-3 -3
-11 5 -18 17 -13 21 -12 21 5 5 10 -10 16 -20 13 -22z m1277 -4 c-4 -3 -14 2
-24 12 -16 18 -16 18 6 6 13 -6 21 -14 18 -18z m-148 -28 c-4 -3 -12 5 -18 18
-12 22 -12 22 6 6 10 -10 15 -20 12 -24z m22 21 c7 -9 8 -15 2 -15 -5 0 -12 7
-16 15 -3 8 -4 15 -2 15 2 0 9 -7 16 -15z m-1977 -17 c30 -15 47 -29 47 -40 0
-16 -10 -18 -81 -18 -79 0 -80 0 -74 23 4 12 9 30 11 40 7 23 39 22 97 -5z
m1915 -3 c-3 -3 -9 2 -12 12 -6 14 -5 15 5 6 7 -7 10 -15 7 -18z m-1045 9 c9
-9 -4 -35 -14 -28 -5 3 -9 12 -9 20 0 14 12 19 23 8z m991 -10 c3 -8 2 -12 -4
-9 -6 3 -10 10 -10 16 0 14 7 11 14 -7z m30 0 c5 -14 4 -15 -9 -4 -17 14 -19
20 -6 20 5 0 12 -7 15 -16z m-2104 -1 c-1 -36 -14 -54 -39 -51 -33 4 -34 28
-1 45 29 15 40 16 40 6z m2045 -4 c11 -17 -1 -21 -15 -4 -8 9 -8 15 -2 15 6 0
14 -5 17 -11z m-49 -26 c-7 -7 -26 7 -26 19 0 6 6 6 15 -2 9 -7 13 -15 11 -17z
m-867 -17 c-1 -17 -2 -17 -6 -3 -2 9 -9 15 -14 12 -5 -4 -9 1 -9 9 0 10 6 13
15 10 8 -4 14 -16 14 -28z m802 17 c13 -16 12 -17 -3 -4 -17 13 -22 21 -14 21
2 0 10 -8 17 -17z m30 0 c13 -16 12 -17 -3 -4 -17 13 -22 21 -14 21 2 0 10 -8
17 -17z m703 1 c15 -40 9 -44 -74 -44 -44 0 -80 4 -80 9 0 24 39 38 136 50 7
0 15 -6 18 -15z m-756 -19 c-3 -3 -9 2 -12 12 -6 14 -5 15 5 6 7 -7 10 -15 7
-18z m-1568 5 c12 -8 9 -10 -13 -10 -16 0 -26 4 -22 10 8 12 16 12 35 0z
m1540 -5 c7 -8 8 -15 2 -15 -5 0 -15 7 -22 15 -7 8 -8 15 -2 15 5 0 15 -7 22
-15z m-119 -12 c13 -16 12 -17 -3 -4 -17 13 -22 21 -14 21 2 0 10 -8 17 -17z
m54 -21 c-6 -7 -35 18 -35 31 0 5 9 2 20 -8 11 -10 18 -20 15 -23z m29 22 c4
-10 1 -14 -6 -12 -15 5 -23 28 -10 28 5 0 13 -7 16 -16z m-682 -26 c-9 -9 -12
-7 -12 12 0 19 3 21 12 12 9 -9 9 -15 0 -24z m573 12 c10 -11 14 -20 9 -20 -5
0 -15 9 -22 20 -7 11 -11 20 -9 20 2 0 12 -9 22 -20z m-57 -11 c7 -12 11 -24
8 -27 -6 -6 -35 27 -36 41 0 14 15 7 28 -14z m27 1 c10 -11 16 -20 13 -20 -3
0 -13 9 -23 20 -10 11 -16 20 -13 20 3 0 13 -9 23 -20z m-60 -30 c-5 -8 -11
-6 -20 7 -17 23 -7 39 12 20 9 -8 12 -20 8 -27z m-449 4 c-4 -9 -9 -15 -11
-12 -3 3 -3 13 1 22 4 9 9 15 11 12 3 -3 3 -13 -1 -22z m404 1 c7 -8 8 -15 2
-15 -5 0 -15 7 -22 15 -7 8 -8 15 -2 15 5 0 15 -7 22 -15z m-35 -6 c10 -15 -1
-23 -35 -25 -19 -1 -30 3 -30 11 0 9 8 11 22 7 14 -3 19 -2 14 6 -4 7 -1 12 8
12 8 0 18 -5 21 -11z m-335 -14 c0 -8 -4 -15 -10 -15 -5 0 -10 7 -10 15 0 8 5
15 10 15 6 0 10 -7 10 -15z m27 -17 c-3 -8 -6 -5 -6 6 -1 11 2 17 5 13 3 -3 4
-12 1 -19z m90 -1 c3 -4 -8 -7 -25 -7 -18 0 -32 4 -32 9 0 11 46 8 57 -2z
m103 3 c0 -5 -9 -10 -20 -10 -11 0 -20 5 -20 10 0 6 9 10 20 10 11 0 20 -4 20
-10z m35 0 c3 -5 1 -10 -4 -10 -6 0 -11 5 -11 10 0 6 2 10 4 10 3 0 8 -4 11
-10z"/>
<path d="M3025 4920 c21 -24 26 -25 19 -6 -3 8 -13 17 -22 21 -13 5 -13 2 3
-15z"/>
<path d="M2888 4463 c7 -3 16 -2 19 1 4 3 -2 6 -13 5 -11 0 -14 -3 -6 -6z"/>
<path d="M3148 4423 c7 -3 16 -2 19 1 4 3 -2 6 -13 5 -11 0 -14 -3 -6 -6z"/>
<path d="M2838 4373 c7 -3 16 -2 19 1 4 3 -2 6 -13 5 -11 0 -14 -3 -6 -6z"/>
<path d="M3010 4249 c0 -5 5 -7 10 -4 6 3 10 8 10 11 0 2 -4 4 -10 4 -5 0 -10
-5 -10 -11z"/>
<path d="M1538 3904 c-5 -4 -8 -18 -8 -31 0 -30 -34 -84 -98 -153 -51 -55 -63
-76 -39 -67 19 7 45 -11 62 -43 9 -17 13 -30 9 -30 -4 0 -1 -7 6 -15 7 -8 10
-21 7 -30 -4 -8 -3 -17 2 -19 10 -7 63 48 55 57 -3 3 -3 11 1 17 6 9 9 9 14 1
5 -8 14 -5 26 9 18 20 18 21 -1 14 -30 -11 44 63 88 88 38 21 38 22 18 40 -11
10 -20 22 -20 26 0 16 -50 63 -78 73 -24 8 -32 17 -34 41 -2 16 -6 26 -10 22z
m40 -146 c7 -7 12 -22 12 -34 0 -51 -72 -61 -78 -11 -6 47 36 75 66 45z"/>
<path d="M1528 3083 c7 -3 16 -2 19 1 4 3 -2 6 -13 5 -11 0 -14 -3 -6 -6z"/>
<path d="M1440 2726 c0 -57 46 -204 74 -234 19 -21 27 -23 76 -17 71 8 142 25
155 36 7 7 -77 14 -142 12 -7 -1 -11 2 -9 6 3 4 -22 24 -55 45 -34 22 -59 45
-58 55 0 12 2 12 9 -4 5 -11 9 -15 9 -8 1 19 -11 43 -19 38 -4 -3 -11 2 -14
11 -3 8 -2 12 4 9 6 -3 10 -2 10 4 0 5 -4 13 -10 16 -5 3 -10 19 -10 35 0 16
-4 32 -10 35 -6 4 -10 -11 -10 -39z m123 -186 c6 0 8 -3 5 -6 -9 -8 -55 24
-63 43 -3 9 6 4 21 -10 15 -15 31 -27 37 -27z"/>
<path d="M1250 2609 c0 -13 5 -31 10 -39 7 -11 8 -5 4 20 -8 43 -14 51 -14 19z"/>
<path d="M2730 1250 c-8 -5 -12 -11 -10 -14 3 -2 14 2 24 10 22 15 10 19 -14
4z"/>
<path d="M3446 1088 c3 -5 10 -6 15 -3 13 9 11 12 -6 12 -8 0 -12 -4 -9 -9z"/>
<path d="M2900 1052 c0 -5 10 -17 22 -28 l21 -19 -18 28 c-18 28 -25 33 -25
19z"/>
<path d="M1598 823 c7 -3 16 -2 19 1 4 3 -2 6 -13 5 -11 0 -14 -3 -6 -6z"/>
</g>
</svg>
